<?xml version="1.0" encoding="utf-8"?>
<!-- Generator: Adobe Illustrator 23.0.1, SVG Export Plug-In . SVG Version: 6.00 Build 0)  -->
<svg version="1.1" id="Ebene_1" xmlns="http://www.w3.org/2000/svg" xmlns:xlink="http://www.w3.org/1999/xlink" x="0px" y="0px"
	 viewBox="0 0 101.6 70.9" style="enable-background:new 0 0 101.6 70.9;" xml:space="preserve">
<style type="text/css">
	.st0{clip-path:url(#SVGID_2_);}
</style>
<g>
	<defs>
		<rect id="SVGID_1_" y="-70.9" width="101.6" height="141.7"/>
	</defs>
	<clipPath id="SVGID_2_">
		<use xlink:href="#SVGID_1_"  style="overflow:visible;"/>
	</clipPath>
	<path class="st0" d="M58.1,10.1c13.4,0,21.5,6.7,21.5,19.6c0,13-8.1,19.6-21.5,19.6H21.7V10.1H58.1z M54.7-49.4
		c13.2,0,21.5,6.7,21.5,19s-8.3,19-21.5,19h-33v-38.1H54.7z M0,70.9h58.1c28.3,0,43.5-15.8,43.5-40.9c0-12.6-5.3-24.3-17.4-31.6
		c9.1-6.5,14-16.8,14-28.8c0-24.5-15.4-40.5-43.5-40.5H0V70.9z"/>
</g>
</svg>
