<?xml version="1.0" encoding="utf-8"?>
<!-- Generator: Adobe Illustrator 23.0.1, SVG Export Plug-In . SVG Version: 6.00 Build 0)  -->
<svg version="1.1" id="Ebene_1" xmlns="http://www.w3.org/2000/svg" xmlns:xlink="http://www.w3.org/1999/xlink" x="0px" y="0px"
	 viewBox="0 0 98.8 70.9" style="enable-background:new 0 0 98.8 70.9;" xml:space="preserve">
<style type="text/css">
	.st0{clip-path:url(#SVGID_2_);}
</style>
<g>
	<defs>
		<rect id="SVGID_1_" y="-70.9" width="98.8" height="141.7"/>
	</defs>
	<clipPath id="SVGID_2_">
		<use xlink:href="#SVGID_1_"  style="overflow:visible;"/>
	</clipPath>
	<path class="st0" d="M0,22.2C0,52,19.9,70.9,49.4,70.9c29.5,0,49.4-18.9,49.4-48.6v-44.5c0-29.7-19.9-48.6-49.4-48.6
		C19.9-70.9,0-52,0-22.2V22.2z M77.8,22.2C77.8,41.5,63.2,50,49.4,50s-28.3-8.5-28.3-27.8v-44.5C21.1-41.5,35.6-50,49.4-50
		s28.3,8.5,28.3,27.8V22.2z"/>
</g>
<path d="M78.7-10.5H57.7v21.1h21.1V-10.5z M41.1-10.5H20.1v21.1h21.1V-10.5z"/>
</svg>
