<?xml version="1.0" encoding="utf-8"?>
<!-- Generator: Adobe Illustrator 23.0.1, SVG Export Plug-In . SVG Version: 6.00 Build 0)  -->
<svg version="1.1" id="Ebene_1" xmlns="http://www.w3.org/2000/svg" xmlns:xlink="http://www.w3.org/1999/xlink" x="0px" y="0px"
	 viewBox="0 0 49.4 141.7" style="enable-background:new 0 0 49.4 141.7;" xml:space="preserve">
<style type="text/css">
	.st0{clip-path:url(#SVGID_2_);}
</style>
<g>
	<rect x="-10.9" y="92.1" width="19.8" height="33.6"/>
	<g>
		<defs>
			<rect id="SVGID_1_" x="-49.4" width="98.8" height="141.7"/>
		</defs>
		<clipPath id="SVGID_2_">
			<use xlink:href="#SVGID_1_"  style="overflow:visible;"/>
		</clipPath>
		<path class="st0" d="M-49.4,93.1c0,29.7,19.9,48.6,49.4,48.6c29.5,0,49.4-18.9,49.4-48.6V48.6C49.4,18.9,29.5,0,0,0
			c-29.5,0-49.4,18.9-49.4,48.6V93.1z M28.3,93.1c0,19.3-14.6,27.8-28.3,27.8s-28.3-8.5-28.3-27.8V48.6c0-19.3,14.6-27.8,28.3-27.8
			s28.3,8.5,28.3,27.8V93.1z"/>
	</g>
</g>
</svg>
