<?xml version="1.0" encoding="utf-8"?>
<!-- Generator: Adobe Illustrator 23.0.1, SVG Export Plug-In . SVG Version: 6.00 Build 0)  -->
<svg version="1.1" id="Ebene_1" xmlns="http://www.w3.org/2000/svg" xmlns:xlink="http://www.w3.org/1999/xlink" x="0px" y="0px"
	 viewBox="0 0 43.1 60.69" style="enable-background:new 0 0 43.1 60.69;" xml:space="preserve">
<style type="text/css">
	.st0{clip-path:url(#SVGID_2_);fill:#2B2B2A;}
</style>
<g>
	<g>
		<defs>
			<rect id="SVGID_1_" y="0" width="43.1" height="60.69"/>
		</defs>
		<clipPath id="SVGID_2_">
			<use xlink:href="#SVGID_1_"  style="overflow:visible;"/>
		</clipPath>
		<path class="st0" d="M34.08,23.46c0,7.99-3.23,11.39-11.3,11.39H8.93V7.57h13.85c8.08,0,11.39,3.4,11.39,11.48L34.08,23.46z
			 M43.1,23.46v-4.42C43.1,6.71,36.38,0,24.06,0H1.28C0.68,0,0,0.6,0,1.28v58.14c0,0.67,0.68,1.27,1.28,1.27h6.38
			c0.68,0,1.28-0.68,1.28-1.27v-17h15.13C36.38,42.41,43.1,35.7,43.1,23.46"/>
	</g>
</g>
</svg>
