<?xml version="1.0" encoding="utf-8"?>
<!-- Generator: Adobe Illustrator 23.0.1, SVG Export Plug-In . SVG Version: 6.00 Build 0)  -->
<svg version="1.1" id="Ebene_1" xmlns="http://www.w3.org/2000/svg" xmlns:xlink="http://www.w3.org/1999/xlink" x="0px" y="0px"
	 viewBox="0 0 43.1 60.69" style="enable-background:new 0 0 43.1 60.69;" xml:space="preserve">
<style type="text/css">
	.st0{clip-path:url(#SVGID_2_);fill:#2B2B2A;}
</style>
<g>
	<g>
		<defs>
			<rect id="SVGID_1_" y="0" width="43.1" height="60.69"/>
		</defs>
		<clipPath id="SVGID_2_">
			<use xlink:href="#SVGID_1_"  style="overflow:visible;"/>
		</clipPath>
		<path class="st0" d="M43.1,59.41V44.88c0-9.52-4.17-15.64-11.56-18.02l7.48-25.58C39.19,0.6,38.94,0,38.34,0h-7.05
			c-0.68,0-1.19,0.6-1.44,1.28l-7.23,24.65H8.93V1.28C8.93,0.52,8.33,0,7.65,0H1.28C0.51,0,0,0.6,0,1.28v58.14
			c0,0.76,0.51,1.27,1.28,1.27h6.38c0.76,0,1.28-0.51,1.28-1.28V33.49h13.94c7.9,0,11.3,3.4,11.3,11.39v14.53
			c0,0.77,0.68,1.28,1.28,1.28H42C42.58,60.69,43.1,60.18,43.1,59.41"/>
	</g>
</g>
</svg>
