<?xml version="1.0" encoding="utf-8"?>
<!-- Generator: Adobe Illustrator 23.0.1, SVG Export Plug-In . SVG Version: 6.00 Build 0)  -->
<svg version="1.1" id="Ebene_1" xmlns="http://www.w3.org/2000/svg" xmlns:xlink="http://www.w3.org/1999/xlink" x="0px" y="0px"
	 viewBox="0 0 33.92 61.37" style="enable-background:new 0 0 33.92 61.37;" xml:space="preserve">
<style type="text/css">
	.st0{clip-path:url(#SVGID_2_);fill:#2B2B2A;}
</style>
<g>
	<g>
		<defs>
			<rect id="SVGID_1_" width="33.92" height="61.37"/>
		</defs>
		<clipPath id="SVGID_2_">
			<use xlink:href="#SVGID_1_"  style="overflow:visible;"/>
		</clipPath>
		<path class="st0" d="M33.92,48.7V1.28c0-0.76-0.6-1.28-1.28-1.28h-6.38c-0.76,0-1.27,0.6-1.27,1.28v47.43
			c0,4.76-5.35,5.1-6.38,5.1h-3.4c-1.1,0-6.29-0.34-6.29-5.1v-3.82c0-0.68-0.68-1.28-1.27-1.28H1.28C0.6,43.61,0,44.2,0,44.88v3.82
			c0,7.32,5.87,12.67,14.03,12.67h5.86C27.97,61.37,33.92,56.02,33.92,48.7"/>
	</g>
</g>
</svg>
