<?xml version="1.0" encoding="utf-8"?>
<!-- Generator: Adobe Illustrator 23.0.1, SVG Export Plug-In . SVG Version: 6.00 Build 0)  -->
<svg version="1.1" id="Ebene_1" xmlns="http://www.w3.org/2000/svg" xmlns:xlink="http://www.w3.org/1999/xlink" x="0px" y="0px"
	 viewBox="0 0 43.59 60.69" style="enable-background:new 0 0 43.59 60.69;" xml:space="preserve">
<style type="text/css">
	.st0{clip-path:url(#SVGID_2_);fill:#2B2B2A;}
</style>
<g>
	<g>
		<defs>
			<rect id="SVGID_1_" y="0" width="43.59" height="60.69"/>
		</defs>
		<clipPath id="SVGID_2_">
			<use xlink:href="#SVGID_1_"  style="overflow:visible;"/>
		</clipPath>
		<path class="st0" d="M34.17,23.38c0,7.99-3.4,11.39-11.39,11.39H8.93V7.57h13.94c7.9,0,11.3,3.4,11.3,11.39V23.38z M43.44,59.41
			L32.9,40.8c6.63-2.55,10.2-8.58,10.2-17.42v-4.42C43.1,6.72,36.3,0,24.06,0H1.28C0.51,0,0,0.6,0,1.28v58.14
			c0,0.76,0.51,1.27,1.28,1.27h6.38c0.76,0,1.28-0.51,1.28-1.28v-17h13.94c0.25,0,0.59-0.08,0.93-0.08l9.69,17.08
			c0.34,0.77,1.27,1.28,1.87,1.28h7.31C43.35,60.69,43.86,60.18,43.44,59.41"/>
	</g>
</g>
</svg>
