<?xml version="1.0" encoding="utf-8"?>
<!-- Generator: Adobe Illustrator 23.0.1, SVG Export Plug-In . SVG Version: 6.00 Build 0)  -->
<svg version="1.1" id="Ebene_1" xmlns="http://www.w3.org/2000/svg" xmlns:xlink="http://www.w3.org/1999/xlink" x="0px" y="0px"
	 viewBox="0 0 43.18 61.97" style="enable-background:new 0 0 43.18 61.97;" xml:space="preserve">
<style type="text/css">
	.st0{clip-path:url(#SVGID_2_);fill:#2B2B2A;}
</style>
<g>
	<g>
		<defs>
			<rect id="SVGID_1_" x="0" y="0" width="43.18" height="61.97"/>
		</defs>
		<clipPath id="SVGID_2_">
			<use xlink:href="#SVGID_1_"  style="overflow:visible;"/>
		</clipPath>
		<path class="st0" d="M43.18,42.93V27.8c0-0.77-0.51-1.28-1.28-1.28H22.86c-0.59,0-1.27,0.6-1.27,1.28v5.01
			c0,0.77,0.68,1.27,1.27,1.27h11.39v8.84c0,8.08-3.4,11.47-11.39,11.47h-2.55c-7.99,0-11.39-3.4-11.39-11.47V18.87
			c0-7.82,3.49-11.39,11.39-11.39h2.55c6.8,0,10.37,2.63,11.22,8.33c0,0.68,0.6,1.27,1.27,1.27h6.38c0.6,0,1.28-0.68,1.28-1.27
			C41.82,5.62,35.27,0,24.14,0h-5.1C6.97,0,0,6.8,0,18.87v24.06c0,12.32,6.97,19.04,19.04,19.04h5.1
			C36.38,61.97,43.18,55.25,43.18,42.93"/>
	</g>
</g>
</svg>
