<?xml version="1.0" encoding="utf-8"?>
<!-- Generator: Adobe Illustrator 23.0.1, SVG Export Plug-In . SVG Version: 6.00 Build 0)  -->
<svg version="1.1" id="Ebene_1" xmlns="http://www.w3.org/2000/svg" xmlns:xlink="http://www.w3.org/1999/xlink" x="0px" y="0px"
	 viewBox="0 0 43.1 31.05" style="enable-background:new 0 0 43.1 31.05;" xml:space="preserve">
<style type="text/css">
	.st0{clip-path:url(#SVGID_2_);fill:#CE2729;}
</style>
<g>
	<g>
		<defs>
			<rect id="SVGID_1_" width="43.1" height="31.05"/>
		</defs>
		<clipPath id="SVGID_2_">
			<use xlink:href="#SVGID_1_"  style="overflow:visible;"/>
		</clipPath>
		<path class="st0" d="M43.1,14.56v-1.19c0-6.8-2.36-10.8-6.17-13.34c-0.1-0.06-27.77-0.05-27.67,0c2.62,1.31,6,2.41,10.38,3.14
			c13,2.21,14.53,4.93,14.53,10.2v1.19c0,5.52-1.95,8.92-11.39,8.92h-2.55c-7.57,0-10.97-3.06-11.39-10.12
			c0-0.76-0.51-1.27-1.27-1.27H1.28C0.6,12.1,0,12.61,0,13.37c0.43,11.39,7.14,17.68,18.96,17.68h5.1
			C39.69,31.05,43.1,22.04,43.1,14.56"/>
	</g>
</g>
</svg>
